<svg xmlns="http://www.w3.org/2000/svg" xmlns:xlink="http://www.w3.org/1999/xlink" width="69" height="113" viewBox="0 0 69 113">
  <defs>
    <filter id="Subtraction_2" x="0" y="0" width="69" height="113" filterUnits="userSpaceOnUse">
      <feOffset dy="3" input="SourceAlpha"/>
      <feGaussianBlur stdDeviation="3" result="blur"/>
      <feFlood flood-opacity="0.161"/>
      <feComposite operator="in" in2="blur"/>
      <feComposite in="SourceGraphic"/>
    </filter>
  </defs>
  <g id="Group_3223" data-name="Group 3223" transform="translate(-141 3943) rotate(180)">
    <g transform="matrix(-1, 0, 0, -1, -141, 3943)" filter="url(#Subtraction_2)">
      <path id="Subtraction_2-2" data-name="Subtraction 2" d="M47.5,147a47.5,47.5,0,1,1,0-95c1.165,0,2.343.043,3.5.127v94.746C49.838,146.957,48.661,147,47.5,147Z" transform="translate(60 153) rotate(180)" fill="#fff" opacity="0.4"/>
    </g>
    <g id="noun_Arrow_2957545" transform="translate(-165.42 3878.209) rotate(90)">
      <g id="Group_2" data-name="Group 2" transform="translate(0 0)">
        <path id="Path_2" data-name="Path 2" d="M43.291,44.8H37.843L32.4,49.756,26.948,44.8H21.5l10.9,9.958Z" transform="translate(-21.5 -35.334)" fill="#8a0d72"/>
        <path id="Path_3" data-name="Path 3" d="M21.5,23.6l10.9,10,10.9-10H37.843l-5.448,5-5.448-5Z" transform="translate(-21.5 -23.6)" fill="#8a0d72"/>
      </g>
    </g>
  </g>
</svg>
