<svg xmlns="http://www.w3.org/2000/svg" xmlns:xlink="http://www.w3.org/1999/xlink" width="113" height="66" viewBox="0 0 113 66">
  <defs>
    <filter id="Subtraction_1" x="0" y="0" width="113" height="66" filterUnits="userSpaceOnUse">
      <feOffset dy="3" input="SourceAlpha"/>
      <feGaussianBlur stdDeviation="3" result="blur"/>
      <feFlood flood-opacity="0.161"/>
      <feComposite operator="in" in2="blur"/>
      <feComposite in="SourceGraphic"/>
    </filter>
  </defs>
  <g id="Group_3222" data-name="Group 3222" transform="translate(-1999 -5567)">
    <g transform="matrix(1, 0, 0, 1, 1999, 5567)" filter="url(#Subtraction_1)">
      <path id="Subtraction_1-2" data-name="Subtraction 1" d="M162,48H67v-.083c0-.138,0-.277,0-.416a47.5,47.5,0,1,1,95,0c0,.166,0,.333,0,.5Z" transform="translate(-58 6)" fill="#fff" opacity="0.65"/>
    </g>
    <g id="Group_2" data-name="Group 2" transform="translate(2066.791 5606.58) rotate(180)">
      <path id="Path_2" data-name="Path 2" d="M43.291,44.8H37.843L32.4,49.756,26.948,44.8H21.5l10.9,9.958Z" transform="translate(-21.5 -35.334)" fill="#8a0d72"/>
      <path id="Path_3" data-name="Path 3" d="M21.5,23.6l10.9,10,10.9-10H37.843l-5.448,5-5.448-5Z" transform="translate(-21.5 -23.6)" fill="#8a0d72"/>
    </g>
  </g>
</svg>
